<?xml version="1.0" encoding="UTF-8" standalone="no"?>
<!-- Created with Inkscape (http://www.inkscape.org/) -->

<svg
   xmlns:dc="http://purl.org/dc/elements/1.1/"
   xmlns:cc="http://creativecommons.org/ns#"
   xmlns:rdf="http://www.w3.org/1999/02/22-rdf-syntax-ns#"
   xmlns:svg="http://www.w3.org/2000/svg"
   xmlns="http://www.w3.org/2000/svg"
   xmlns:sodipodi="http://sodipodi.sourceforge.net/DTD/sodipodi-0.dtd"
   xmlns:inkscape="http://www.inkscape.org/namespaces/inkscape"
   width="105mm"
   height="59mm"
   viewBox="0 0 372.04724 209.05512"
   id="svg4542"
   version="1.1"
   inkscape:version="0.91 r13725"
   sodipodi:docname="integrationcost.svg">
  <defs
     id="defs4544">
    <clipPath
       id="clipPath5112"
       clipPathUnits="userSpaceOnUse">
      <path
         style="clip-rule:evenodd"
         inkscape:connector-curvature="0"
         id="path5114"
         d="m 181.34,222.59 602.28,0 0,208.6 -602.28,0 0,-208.6 z" />
    </clipPath>
    <clipPath
       id="clipPath5122"
       clipPathUnits="userSpaceOnUse">
      <path
         style="clip-rule:evenodd"
         inkscape:connector-curvature="0"
         id="path5124"
         d="m 37.8,90.72 766.2,0 0,413.88 -766.2,0 0,-413.88 z" />
    </clipPath>
    <clipPath
       id="clipPath5134"
       clipPathUnits="userSpaceOnUse">
      <path
         style="clip-rule:evenodd"
         inkscape:connector-curvature="0"
         id="path5136"
         d="m 37.8,90.72 766.2,0 0,413.88 -766.2,0 0,-413.88 z" />
    </clipPath>
    <clipPath
       id="clipPath5146"
       clipPathUnits="userSpaceOnUse">
      <path
         style="clip-rule:evenodd"
         inkscape:connector-curvature="0"
         id="path5148"
         d="m 37.8,90.72 766.2,0 0,413.88 -766.2,0 0,-413.88 z" />
    </clipPath>
    <clipPath
       id="clipPath5158"
       clipPathUnits="userSpaceOnUse">
      <path
         style="clip-rule:evenodd"
         inkscape:connector-curvature="0"
         id="path5160"
         d="m 37.8,90.72 766.2,0 0,413.88 -766.2,0 0,-413.88 z" />
    </clipPath>
    <clipPath
       id="clipPath5170"
       clipPathUnits="userSpaceOnUse">
      <path
         style="clip-rule:evenodd"
         inkscape:connector-curvature="0"
         id="path5172"
         d="m 37.8,90.72 766.2,0 0,413.88 -766.2,0 0,-413.88 z" />
    </clipPath>
    <clipPath
       id="clipPath5182"
       clipPathUnits="userSpaceOnUse">
      <path
         style="clip-rule:evenodd"
         inkscape:connector-curvature="0"
         id="path5184"
         d="m 37.8,90.72 766.2,0 0,413.88 -766.2,0 0,-413.88 z" />
    </clipPath>
    <clipPath
       id="clipPath5194"
       clipPathUnits="userSpaceOnUse">
      <path
         style="clip-rule:evenodd"
         inkscape:connector-curvature="0"
         id="path5196"
         d="m 37.8,90.72 766.2,0 0,413.88 -766.2,0 0,-413.88 z" />
    </clipPath>
    <clipPath
       id="clipPath5206"
       clipPathUnits="userSpaceOnUse">
      <path
         style="clip-rule:evenodd"
         inkscape:connector-curvature="0"
         id="path5208"
         d="m 37.8,90.72 766.2,0 0,413.88 -766.2,0 0,-413.88 z" />
    </clipPath>
    <clipPath
       id="clipPath5218"
       clipPathUnits="userSpaceOnUse">
      <path
         style="clip-rule:evenodd"
         inkscape:connector-curvature="0"
         id="path5220"
         d="m 37.8,90.72 766.2,0 0,413.88 -766.2,0 0,-413.88 z" />
    </clipPath>
    <clipPath
       id="clipPath5230"
       clipPathUnits="userSpaceOnUse">
      <path
         style="clip-rule:evenodd"
         inkscape:connector-curvature="0"
         id="path5232"
         d="m 37.8,90.72 766.2,0 0,413.88 -766.2,0 0,-413.88 z" />
    </clipPath>
    <clipPath
       id="clipPath5242"
       clipPathUnits="userSpaceOnUse">
      <path
         style="clip-rule:evenodd"
         inkscape:connector-curvature="0"
         id="path5244"
         d="m 37.8,90.72 766.2,0 0,413.88 -766.2,0 0,-413.88 z" />
    </clipPath>
    <clipPath
       id="clipPath5254"
       clipPathUnits="userSpaceOnUse">
      <path
         style="clip-rule:evenodd"
         inkscape:connector-curvature="0"
         id="path5256"
         d="m 37.8,90.72 766.2,0 0,413.88 -766.2,0 0,-413.88 z" />
    </clipPath>
    <clipPath
       id="clipPath5266"
       clipPathUnits="userSpaceOnUse">
      <path
         style="clip-rule:evenodd"
         inkscape:connector-curvature="0"
         id="path5268"
         d="m 37.8,90.72 766.2,0 0,413.88 -766.2,0 0,-413.88 z" />
    </clipPath>
    <clipPath
       id="clipPath5278"
       clipPathUnits="userSpaceOnUse">
      <path
         style="clip-rule:evenodd"
         inkscape:connector-curvature="0"
         id="path5280"
         d="m 37.8,90.72 766.2,0 0,413.88 -766.2,0 0,-413.88 z" />
    </clipPath>
    <clipPath
       id="clipPath5290"
       clipPathUnits="userSpaceOnUse">
      <path
         style="clip-rule:evenodd"
         inkscape:connector-curvature="0"
         id="path5292"
         d="m 37.8,90.72 766.2,0 0,413.88 -766.2,0 0,-413.88 z" />
    </clipPath>
    <clipPath
       id="clipPath5302"
       clipPathUnits="userSpaceOnUse">
      <path
         style="clip-rule:evenodd"
         inkscape:connector-curvature="0"
         id="path5304"
         d="m 37.8,90.72 766.2,0 0,413.88 -766.2,0 0,-413.88 z" />
    </clipPath>
    <clipPath
       id="clipPath5314"
       clipPathUnits="userSpaceOnUse">
      <path
         style="clip-rule:evenodd"
         inkscape:connector-curvature="0"
         id="path5316"
         d="m 37.8,90.72 766.2,0 0,413.88 -766.2,0 0,-413.88 z" />
    </clipPath>
    <clipPath
       id="clipPath5328"
       clipPathUnits="userSpaceOnUse">
      <path
         style="clip-rule:evenodd"
         inkscape:connector-curvature="0"
         id="path5330"
         d="m 37.8,90.72 766.2,0 0,413.88 -766.2,0 0,-413.88 z" />
    </clipPath>
    <clipPath
       id="clipPath5342"
       clipPathUnits="userSpaceOnUse">
      <path
         style="clip-rule:evenodd"
         inkscape:connector-curvature="0"
         id="path5344"
         d="m 37.8,90.72 766.2,0 0,413.88 -766.2,0 0,-413.88 z" />
    </clipPath>
  </defs>
  <sodipodi:namedview
     id="base"
     pagecolor="#ffffff"
     bordercolor="#666666"
     borderopacity="1.0"
     inkscape:pageopacity="0.0"
     inkscape:pageshadow="2"
     inkscape:zoom="1.4"
     inkscape:cx="387.46328"
     inkscape:cy="91.497629"
     inkscape:document-units="px"
     inkscape:current-layer="layer1"
     showgrid="false"
     inkscape:window-width="1366"
     inkscape:window-height="716"
     inkscape:window-x="1912"
     inkscape:window-y="-8"
     inkscape:window-maximized="1" />
  <metadata
     id="metadata4547">
    <rdf:RDF>
      <cc:Work
         rdf:about="">
        <dc:format>image/svg+xml</dc:format>
        <dc:type
           rdf:resource="http://purl.org/dc/dcmitype/StillImage" />
        <dc:title></dc:title>
      </cc:Work>
    </rdf:RDF>
  </metadata>
  <g
     inkscape:label="Camada 1"
     inkscape:groupmode="layer"
     id="layer1"
     transform="translate(0,-843.30709)">
    <g
       transform="matrix(0.48386535,0,0,-0.48386535,-16.890796,1093.3062)"
       inkscape:label="integrationcost"
       id="g5098">
      <path
         inkscape:connector-curvature="0"
         id="path5100"
         style="fill:#ffffff;fill-opacity:1;fill-rule:evenodd;stroke:none"
         d="m 37.836,90.702 766.22,0 0,413.88 -766.22,0 0,-413.88 z" />
      <path
         inkscape:connector-curvature="0"
         id="path5102"
         style="fill:none;stroke:#d9d9d9;stroke-width:1.4849;stroke-linecap:butt;stroke-linejoin:round;stroke-miterlimit:10;stroke-dasharray:none;stroke-opacity:1"
         d="m 181.45,253.48 600.83,0 m -600.83,29.7 600.83,0 m -600.83,29.46 600.83,0 m -600.83,29.7 600.83,0 m -600.83,29.7 600.83,0 m -600.83,29.46 600.83,0 m -600.83,29.65 600.83,0" />
      <path
         inkscape:connector-curvature="0"
         id="path5104"
         style="fill:none;stroke:#d9d9d9;stroke-width:1.4849;stroke-linecap:butt;stroke-linejoin:round;stroke-miterlimit:10;stroke-dasharray:none;stroke-opacity:1"
         d="m 181.45,223.91 600.83,0" />
      <path
         inkscape:connector-curvature="0"
         id="path5106"
         style="fill:none;stroke:#5b9bd5;stroke-width:4.45480013;stroke-linecap:round;stroke-linejoin:round;stroke-miterlimit:10;stroke-dasharray:none;stroke-opacity:1"
         d="m 231.51,226.82 100.22,5.99 100.03,13.3 100.26,26.61 100.02,48.95 100.17,84.05" />
      <g
         id="g5108">
        <g
           clip-path="url(#clipPath5112)"
           id="g5110">
          <path
             inkscape:connector-curvature="0"
             id="path5116"
             style="fill:none;stroke:#ed7d31;stroke-width:4.45480013;stroke-linecap:round;stroke-linejoin:round;stroke-miterlimit:10;stroke-dasharray:none;stroke-opacity:1"
             d="m 231.51,224.7 100.22,0.98 100.03,11.41 100.26,-0.48 100.02,11.17 100.17,43.66" />
        </g>
      </g>
      <g
         id="g5118">
        <g
           clip-path="url(#clipPath5122)"
           id="g5120">
          <text
             id="text5126"
             style="font-variant:normal;font-weight:normal;font-size:17.80800056px;font-family:Calibri;-inkscape-font-specification:Calibri;writing-mode:lr-tb;fill:#595959;fill-opacity:1;fill-rule:nonzero;stroke:none"
             transform="matrix(1,0,0,-1,155.93,218.81)">
            <tspan
               id="tspan5128"
               y="0"
               x="0">0</tspan>
          </text>
        </g>
      </g>
      <g
         id="g5130">
        <g
           clip-path="url(#clipPath5134)"
           id="g5132">
          <text
             id="text5138"
             style="font-variant:normal;font-weight:normal;font-size:17.80800056px;font-family:Calibri;-inkscape-font-specification:Calibri;writing-mode:lr-tb;fill:#595959;fill-opacity:1;fill-rule:nonzero;stroke:none"
             transform="matrix(1,0,0,-1,101.74,248.42)">
            <tspan
               id="tspan5140"
               sodipodi:role="line"
               y="0"
               x="0 9.0479565 18.095913 27.143867 36.191826 45.23978 54.287735">2000000</tspan>
          </text>
        </g>
      </g>
      <g
         id="g5142">
        <g
           clip-path="url(#clipPath5146)"
           id="g5144">
          <text
             id="text5150"
             style="font-variant:normal;font-weight:normal;font-size:17.80800056px;font-family:Calibri;-inkscape-font-specification:Calibri;writing-mode:lr-tb;fill:#595959;fill-opacity:1;fill-rule:nonzero;stroke:none"
             transform="matrix(1,0,0,-1,101.74,278.04)">
            <tspan
               id="tspan5152"
               sodipodi:role="line"
               y="0"
               x="0 9.0479565 18.095913 27.143867 36.191826 45.23978 54.287735">4000000</tspan>
          </text>
        </g>
      </g>
      <g
         id="g5154">
        <g
           clip-path="url(#clipPath5158)"
           id="g5156">
          <text
             id="text5162"
             style="font-variant:normal;font-weight:normal;font-size:17.83200073px;font-family:Calibri;-inkscape-font-specification:Calibri;writing-mode:lr-tb;fill:#595959;fill-opacity:1;fill-rule:nonzero;stroke:none"
             transform="matrix(1,0,0,-1,101.74,307.66)">
            <tspan
               id="tspan5164"
               sodipodi:role="line"
               y="0"
               x="0 9.0480042 18.096008 27.144012 36.192017 45.240021 54.288025">6000000</tspan>
          </text>
        </g>
      </g>
      <g
         id="g5166">
        <g
           clip-path="url(#clipPath5170)"
           id="g5168">
          <text
             id="text5174"
             style="font-variant:normal;font-weight:normal;font-size:17.83200073px;font-family:Calibri;-inkscape-font-specification:Calibri;writing-mode:lr-tb;fill:#595959;fill-opacity:1;fill-rule:nonzero;stroke:none"
             transform="matrix(1,0,0,-1,101.74,337.27)">
            <tspan
               id="tspan5176"
               sodipodi:role="line"
               y="0"
               x="0 9.0480042 18.096008 27.144012 36.192017 45.240021 54.288025">8000000</tspan>
          </text>
        </g>
      </g>
      <g
         id="g5178">
        <g
           clip-path="url(#clipPath5182)"
           id="g5180">
          <text
             id="text5186"
             style="font-variant:normal;font-weight:normal;font-size:17.83200073px;font-family:Calibri;-inkscape-font-specification:Calibri;writing-mode:lr-tb;fill:#595959;fill-opacity:1;fill-rule:nonzero;stroke:none"
             transform="matrix(1,0,0,-1,92.712,366.89)">
            <tspan
               id="tspan5188"
               sodipodi:role="line"
               y="0"
               x="0 9.024024 18.048048 27.072071 36.096096 45.120121 54.144142 63.168167">10000000</tspan>
          </text>
        </g>
      </g>
      <g
         id="g5190">
        <g
           clip-path="url(#clipPath5194)"
           id="g5192">
          <text
             id="text5198"
             style="font-variant:normal;font-weight:normal;font-size:17.83200073px;font-family:Calibri;-inkscape-font-specification:Calibri;writing-mode:lr-tb;fill:#595959;fill-opacity:1;fill-rule:nonzero;stroke:none"
             transform="matrix(1,0,0,-1,92.712,396.5)">
            <tspan
               id="tspan5200"
               sodipodi:role="line"
               y="0"
               x="0 9.024024 18.048048 27.072071 36.096096 45.120121 54.144142 63.168167">12000000</tspan>
          </text>
        </g>
      </g>
      <g
         id="g5202">
        <g
           clip-path="url(#clipPath5206)"
           id="g5204">
          <text
             id="text5210"
             style="font-variant:normal;font-weight:normal;font-size:17.80800056px;font-family:Calibri;-inkscape-font-specification:Calibri;writing-mode:lr-tb;fill:#595959;fill-opacity:1;fill-rule:nonzero;stroke:none"
             transform="matrix(1,0,0,-1,92.712,426.1)">
            <tspan
               id="tspan5212"
               sodipodi:role="line"
               y="0"
               x="0 9.0239964 18.047993 27.071987 36.095985 45.11998 54.143974 63.167973">14000000</tspan>
          </text>
        </g>
      </g>
      <g
         id="g5214">
        <g
           clip-path="url(#clipPath5218)"
           id="g5216">
          <text
             id="text5222"
             style="font-variant:normal;font-weight:normal;font-size:17.83200073px;font-family:Calibri;-inkscape-font-specification:Calibri;writing-mode:lr-tb;fill:#595959;fill-opacity:1;fill-rule:nonzero;stroke:none"
             transform="matrix(1,0,0,-1,222.53,195.65)">
            <tspan
               id="tspan5224"
               sodipodi:role="line"
               y="0"
               x="0 9.024024">50</tspan>
          </text>
        </g>
      </g>
      <g
         id="g5226">
        <g
           clip-path="url(#clipPath5230)"
           id="g5228">
          <text
             id="text5234"
             style="font-variant:normal;font-weight:normal;font-size:17.83200073px;font-family:Calibri;-inkscape-font-specification:Calibri;writing-mode:lr-tb;fill:#595959;fill-opacity:1;fill-rule:nonzero;stroke:none"
             transform="matrix(1,0,0,-1,322.68,195.65)">
            <tspan
               id="tspan5236"
               sodipodi:role="line"
               y="0"
               x="0 9.024024">60</tspan>
          </text>
        </g>
      </g>
      <g
         id="g5238">
        <g
           clip-path="url(#clipPath5242)"
           id="g5240">
          <text
             id="text5246"
             style="font-variant:normal;font-weight:normal;font-size:17.83200073px;font-family:Calibri;-inkscape-font-specification:Calibri;writing-mode:lr-tb;fill:#595959;fill-opacity:1;fill-rule:nonzero;stroke:none"
             transform="matrix(1,0,0,-1,422.83,195.65)">
            <tspan
               id="tspan5248"
               sodipodi:role="line"
               y="0"
               x="0 9.024024">70</tspan>
          </text>
        </g>
      </g>
      <g
         id="g5250">
        <g
           clip-path="url(#clipPath5254)"
           id="g5252">
          <text
             id="text5258"
             style="font-variant:normal;font-weight:normal;font-size:17.83200073px;font-family:Calibri;-inkscape-font-specification:Calibri;writing-mode:lr-tb;fill:#595959;fill-opacity:1;fill-rule:nonzero;stroke:none"
             transform="matrix(1,0,0,-1,522.98,195.65)">
            <tspan
               id="tspan5260"
               sodipodi:role="line"
               y="0"
               x="0 9.024024">80</tspan>
          </text>
        </g>
      </g>
      <g
         id="g5262">
        <g
           clip-path="url(#clipPath5266)"
           id="g5264">
          <text
             id="text5270"
             style="font-variant:normal;font-weight:normal;font-size:17.83200073px;font-family:Calibri;-inkscape-font-specification:Calibri;writing-mode:lr-tb;fill:#595959;fill-opacity:1;fill-rule:nonzero;stroke:none"
             transform="matrix(1,0,0,-1,623.14,195.65)">
            <tspan
               id="tspan5272"
               sodipodi:role="line"
               y="0"
               x="0 9.024024">90</tspan>
          </text>
        </g>
      </g>
      <g
         id="g5274">
        <g
           clip-path="url(#clipPath5278)"
           id="g5276">
          <text
             id="text5282"
             style="font-variant:normal;font-weight:normal;font-size:17.83200073px;font-family:Calibri;-inkscape-font-specification:Calibri;writing-mode:lr-tb;fill:#595959;fill-opacity:1;fill-rule:nonzero;stroke:none"
             transform="matrix(1,0,0,-1,718.78,195.65)">
            <tspan
               id="tspan5284"
               sodipodi:role="line"
               y="0"
               x="0 9.024024 18.048048">100</tspan>
          </text>
        </g>
      </g>
      <g
         id="g5286">
        <g
           clip-path="url(#clipPath5290)"
           id="g5288">
          <text
             id="text5294"
             style="font-variant:normal;font-weight:normal;font-size:19.70400047px;font-family:Calibri;-inkscape-font-specification:Calibri;writing-mode:lr-tb;fill:#595959;fill-opacity:1;fill-rule:nonzero;stroke:none"
             transform="matrix(-4.4e-8,1,1,4.4e-8,81.384,241.51)">
            <tspan
               id="tspan5296"
               sodipodi:role="line"
               y="0"
               x="0 12.787896 23.211311 38.875992 49.299408 59.052887 65.929581 70.441803 80.825806 86.835526 91.288635 98.165329 107.97792 121.96776 128.84445 133.37637 139.97722 144.50914 154.95226 164.23283">Number of rewritings</tspan>
          </text>
        </g>
      </g>
      <g
         id="g5298">
        <g
           clip-path="url(#clipPath5302)"
           id="g5300">
          <text
             id="text5306"
             style="font-variant:normal;font-weight:normal;font-size:19.72800064px;font-family:Calibri;-inkscape-font-specification:Calibri;writing-mode:lr-tb;fill:#595959;fill-opacity:1;fill-rule:nonzero;stroke:none"
             transform="matrix(1,0,0,-1,366.94,166.06)">
            <tspan
               id="tspan5308"
               sodipodi:role="line"
               y="0"
               x="0 12.803472 23.219856 38.883888 49.300274 59.045902 65.930977 70.389503 80.865074 86.78347 91.241997 99.586945 109.9836 120.45917 128.80411 135.68918 145.39536 152.00424 161.82878 166.52405 174.13905 183.88469 190.76976 199.54872 204.08617 212.37192 222.11755">Number of concrete services</tspan>
          </text>
        </g>
      </g>
      <g
         id="g5310">
        <g
           clip-path="url(#clipPath5314)"
           id="g5312">
          <text
             id="text5318"
             style="font-variant:normal;font-weight:normal;font-size:27.81599998px;font-family:Calibri;-inkscape-font-specification:Calibri;writing-mode:lr-tb;fill:#595959;fill-opacity:1;fill-rule:nonzero;stroke:none"
             transform="matrix(1,0,0,-1,332.62,463.34)">
            <tspan
               id="tspan5320"
               sodipodi:role="line"
               y="0"
               x="0 6.8983679 21.167976 30.208176 44.060543 57.16188 66.368973 79.442497 88.760857 95.158539 109.81757 124.42097 130.59612 142.0285 156.68753 167.48013">Integration cost</tspan>
          </text>
        </g>
      </g>
      <path
         inkscape:connector-curvature="0"
         id="path5322"
         style="fill:none;stroke:#5b9bd5;stroke-width:4.45480013;stroke-linecap:round;stroke-linejoin:round;stroke-miterlimit:10;stroke-dasharray:none;stroke-opacity:1"
         d="m 182.2,119.29 38.01,0" />
      <g
         id="g5324">
        <g
           clip-path="url(#clipPath5328)"
           id="g5326">
          <text
             id="text5332"
             style="font-variant:normal;font-weight:normal;font-size:17.80800056px;font-family:Calibri;-inkscape-font-specification:Calibri;writing-mode:lr-tb;fill:#595959;fill-opacity:1;fill-rule:nonzero;stroke:none"
             transform="matrix(1,0,0,-1,224.26,114.17)">
            <tspan
               id="tspan5334"
               sodipodi:role="line"
               y="0"
               x="0 8.7971516 15.012144 23.542175 32.820145 36.915985 42.828239 47.102161 56.36232 65.853981 74.188126 78.462051 82.486656 91.070114 100.33027 109.59043 116.00131 125.26147 133.7915 141.41333">Traditional approach</tspan>
          </text>
        </g>
      </g>
      <path
         inkscape:connector-curvature="0"
         id="path5336"
         style="fill:none;stroke:#ed7d31;stroke-width:4.45480013;stroke-linecap:round;stroke-linejoin:round;stroke-miterlimit:10;stroke-dasharray:none;stroke-opacity:1"
         d="m 411,119.29 38.01,0" />
      <g
         id="g5338">
        <g
           clip-path="url(#clipPath5342)"
           id="g5340">
          <text
             id="text5346"
             style="font-variant:normal;font-weight:normal;font-size:17.80800056px;font-family:Calibri;-inkscape-font-specification:Calibri;writing-mode:lr-tb;fill:#595959;fill-opacity:1;fill-rule:nonzero;stroke:none"
             transform="matrix(1,0,0,-1,453.1,114.17)">
            <tspan
               id="tspan5348"
               sodipodi:role="line"
               y="0"
               x="0 9.2423515 15.457344 24.201073 29.632511 38.500896 44.840546 53.619888 62.880047 70.466255 79.245598 86.35099 91.80024 100.18781 109.41235 113.66846 122.92863 131.70796 141.19963 145.22424 153.75427 163.03224 172.52391 178.73889 187.96344 196.49347 204.09749">Preferences-guided approach</tspan>
          </text>
        </g>
      </g>
      <path
         inkscape:connector-curvature="0"
         id="path5350"
         style="fill:none;stroke:#d9d9d9;stroke-width:1.4849;stroke-linecap:butt;stroke-linejoin:round;stroke-miterlimit:10;stroke-dasharray:none;stroke-opacity:1"
         d="m 37.836,90.702 766.22,0 0,413.88 -766.22,0 0,-413.88 z" />
    </g>
  </g>
</svg>
